<?xml version="1.0" encoding="UTF-8" standalone="no"?>
<svg
   version="1.0"
   width="2000.000000pt"
   height="2000.000000pt"
   viewBox="0 0 2000.000000 2000.000000"
   preserveAspectRatio="xMidYMid meet"
   id="svg42025"
   sodipodi:docname="my-logo.svg"
   inkscape:version="1.2.2 (732a01da63, 2022-12-09)"
   xmlns:inkscape="http://www.inkscape.org/namespaces/inkscape"
   xmlns:sodipodi="http://sodipodi.sourceforge.net/DTD/sodipodi-0.dtd"
   xmlns="http://www.w3.org/2000/svg"
   xmlns:svg="http://www.w3.org/2000/svg">
  <defs
     id="defs42029" />
  <sodipodi:namedview
     id="namedview42027"
     pagecolor="#ffffff"
     bordercolor="#000000"
     borderopacity="0.25"
     inkscape:showpageshadow="2"
     inkscape:pageopacity="0.0"
     inkscape:pagecheckerboard="0"
     inkscape:deskcolor="#d1d1d1"
     inkscape:document-units="pt"
     showgrid="false"
     inkscape:zoom="0.18525"
     inkscape:cx="1333.3333"
     inkscape:cy="1333.3333"
     inkscape:window-width="1366"
     inkscape:window-height="697"
     inkscape:window-x="-8"
     inkscape:window-y="-8"
     inkscape:window-maximized="1"
     inkscape:current-layer="svg42025" />
  <g
     transform="translate(0.000000,2000.000000) scale(0.100000,-0.100000)"
     fill="#000000"
     stroke="none"
     id="g42023"
     style="fill:#333333">
    <path
       d="M9313 17345 c-154 -42 -262 -143 -323 -300 -23 -59 -24 -68 -34 -659 l-11 -599 -155 -33 c-623 -130 -1287 -395 -1859 -742 l-124 -75 -116 119 c-668 683 -717 731 -793 768 -40 20 -100 41 -133 47 -112 21 -248 -8 -345 -73 -27 -18 -281 -262 -564 -541 -366 -361 -524 -523 -545 -560 -85 -149 -80 -349 11 -494 18 -28 212 -234 432 -457 266 -272 396 -411 392 -421 -3 -8 -32 -54 -64 -102 -292 -435 -523 -913 -687 -1423 -48 -150 -114 -398 -136 -508 l-12 -63 -621 3 -621 3 -60 -28 c-134 -63 -224 -164 -266 -296 -19 -63 -21 -101 -30 -799 -11 -802 -12 -788 47 -904 60 -119 208 -220 351 -239 37 -5 315 -13 617 -17 l549 -7 33 -158 c129 -619 388 -1268 742 -1856 l74 -125 -133 -130 c-643 -627 -716 -702 -753 -778 -20 -40 -41 -100 -47 -133 -21 -112 8 -248 73 -345 18 -27 262 -281 541 -564 361 -366 523 -524 560 -545 152 -87 357 -80 501 17 30 20 235 214 456 431 269 264 405 391 415 387 8 -3 48 -27 87 -54 411 -276 858 -499 1323 -658 166 -58 439 -135 578 -165 l109 -23 -4 -620 -3 -621 28 -60 c63 -134 163 -224 296 -266 63 -19 101 -21 794 -30 534 -7 743 -7 782 1 130 27 255 122 314 238 57 112 59 136 67 755 5 406 10 569 18 572 6 1 83 17 171 35 194 40 475 119 685 193 151 53 428 163 442 176 4 4 -278 292 -626 640 l-634 634 -149 -31 c-558 -119 -1104 -137 -1623 -56 -1121 176 -2144 814 -2806 1749 -426 600 -681 1296 -755 2055 -16 159 -15 597 0 760 83 871 387 1623 936 2312 110 138 372 408 520 535 666 575 1449 913 2337 1009 184 20 621 23 808 5 868 -82 1617 -384 2305 -930 155 -123 503 -471 631 -631 541 -679 843 -1424 925 -2285 16 -165 16 -630 0 -800 -24 -263 -68 -500 -137 -740 l-35 -119 629 -629 629 -629 75 179 c148 348 239 618 316 931 l47 193 620 -3 620 -3 68 32 c130 62 217 160 258 292 19 63 21 101 30 799 9 647 8 739 -5 792 -41 159 -141 269 -301 330 -58 22 -76 23 -480 31 -231 5 -501 10 -599 11 l-180 3 -27 130 c-133 643 -389 1289 -747 1884 l-74 124 113 111 c664 648 736 722 773 798 20 40 41 100 47 133 21 112 -8 248 -73 345 -18 27 -262 281 -541 564 -361 366 -523 524 -560 545 -149 85 -349 80 -494 -11 -28 -18 -234 -212 -457 -432 -272 -266 -411 -396 -421 -392 -8 3 -54 32 -102 64 -339 228 -725 428 -1110 577 -234 91 -621 207 -821 246 l-64 12 4 621 3 621 -28 60 c-63 134 -163 224 -296 266 -62 19 -100 21 -696 29 -807 12 -839 12 -902 -5z"
       id="path42019"
       style="fill:#333333" />
    <path
       d="M9766 12859 c-216 -21 -577 -98 -634 -135 -30 -19 -44 -59 -36 -98 4 -24 157 -183 664 -691 361 -363 672 -682 690 -708 45 -68 105 -200 124 -273 38 -147 38 -337 0 -479 -24 -85 -86 -216 -138 -288 -67 -94 -709 -725 -778 -765 -158 -93 -306 -134 -483 -134 -177 0 -325 41 -483 134 -41 24 -235 210 -702 675 -618 616 -647 643 -682 643 -65 0 -84 -28 -112 -160 -46 -218 -60 -358 -60 -610 0 -245 13 -380 55 -585 92 -443 300 -883 589 -1245 396 -494 994 -862 1617 -994 247 -52 329 -59 758 -60 377 -1 406 -3 505 -24 223 -49 434 -139 602 -258 63 -44 409 -383 1418 -1390 1539 -1535 1385 -1399 1590 -1399 110 0 118 1 184 34 59 29 100 63 258 219 103 102 188 190 188 196 0 6 -675 686 -1501 1511 -825 825 -1511 1518 -1524 1540 -62 104 -75 231 -34 340 26 71 99 149 174 185 43 22 64 25 155 25 184 0 12 154 1730 -1562 833 -832 1520 -1513 1526 -1513 6 0 94 85 196 188 156 158 190 199 219 258 33 66 34 74 34 184 0 205 128 59 -1344 1535 -1399 1402 -1347 1346 -1467 1590 -71 145 -113 266 -146 418 -23 111 -25 169 -17 802 4 305 -3 384 -52 624 -272 1333 -1462 2291 -2831 2280 -90 -1 -203 -6 -252 -10z"
       id="path42021"
       style="fill:#333333" />
  </g>
</svg>
